<?xml version="1.0" encoding="UTF-8"?> <svg xmlns="http://www.w3.org/2000/svg" width="366" height="366" viewBox="0 0 366 366" fill="none"><path opacity="0.302" d="M183 0C284.064 0 366 81.9357 366 183C366 284.064 284.064 366 183 366C81.9357 366 0 284.064 0 183C0 81.9357 81.9357 0 183 0Z" fill="#258DEA"></path><path d="M183.863 12.0851C278.73 12.0851 355.642 88.9969 355.642 183.863C355.642 278.73 278.73 355.642 183.863 355.642C88.9967 355.642 12.085 278.73 12.085 183.863C12.085 88.9969 88.9967 12.0851 183.863 12.0851Z" fill="white"></path><path fill-rule="evenodd" clip-rule="evenodd" d="M183.863 13.5851C89.8252 13.5851 13.585 89.8254 13.585 183.863C13.585 277.901 89.8252 354.142 183.863 354.142C277.901 354.142 354.142 277.901 354.142 183.863C354.142 89.8254 277.901 13.5851 183.863 13.5851ZM10.585 183.863C10.585 88.1685 88.1683 10.5851 183.863 10.5851C279.558 10.5851 357.142 88.1685 357.142 183.863C357.142 279.558 279.558 357.142 183.863 357.142C88.1683 357.142 10.585 279.558 10.585 183.863Z" fill="#0091EA"></path><path d="M51 289.186L159.992 15.4323C168.056 14.2367 176.305 13.6175 184.697 13.6175C245.884 13.6175 299.458 46.5302 329 95.7781L228.59 348.228C214.595 352.028 199.881 354.055 184.697 354.055C130.537 354.055 81.8434 329.263 51 289.186Z" fill="#EBF7FF"></path><path d="M207.875 179.75H214.125V186H207.875V179.75Z" fill="#0091E9"></path><path d="M195.375 179.75H201.625V186H195.375V179.75Z" fill="#0091E9"></path><path d="M182.875 179.75H189.125V186H182.875V179.75Z" fill="#0091E9"></path><path d="M270.375 217.25H214.125C208.956 217.25 204.75 221.456 204.75 226.625V239.125H195.375C190.206 239.125 186 234.919 186 229.75V211H217.25C222.419 211 226.625 206.794 226.625 201.625V186H229.75C238.366 186 245.375 178.991 245.375 170.375V160.841C264.591 159.244 279.75 143.122 279.75 123.5C279.75 102.822 262.928 86 242.25 86C221.572 86 204.75 102.822 204.75 123.5C204.75 143.122 219.909 159.244 239.125 160.841V170.375C239.125 175.544 234.919 179.75 229.75 179.75H226.625V170.375C226.625 165.206 222.419 161 217.25 161H186V126.625C186 118.009 178.991 111 170.375 111H161V101.625C161 93.0094 153.991 86 145.375 86H107.875C99.2594 86 92.25 93.0094 92.25 101.625V129.75H86V139.125C86 147.741 93.0094 154.75 101.625 154.75H151.625C160.241 154.75 167.25 147.741 167.25 139.125V129.75H161V117.25H170.375C175.544 117.25 179.75 121.456 179.75 126.625V161H148.5C143.331 161 139.125 165.206 139.125 170.375V179.75H123.5C114.884 179.75 107.875 186.759 107.875 195.375V204.75H95.375C90.2062 204.75 86 208.956 86 214.125V270.375C86 275.544 90.2062 279.75 95.375 279.75H126.625C131.794 279.75 136 275.544 136 270.375V214.125C136 208.956 131.794 204.75 126.625 204.75H114.125V195.375C114.125 190.206 118.331 186 123.5 186H139.125V201.625C139.125 206.794 143.331 211 148.5 211H179.75V229.75C179.75 238.366 186.759 245.375 195.375 245.375H204.75V257.875C204.75 263.044 208.956 267.25 214.125 267.25H223.5V273.5H217.25V279.75H267.25V273.5H261V267.25H270.375C275.544 267.25 279.75 263.044 279.75 257.875V226.625C279.75 221.456 275.544 217.25 270.375 217.25ZM211.159 126.625H223.653C224.019 131.072 225.134 135.275 226.622 139.125H215.228C213.05 135.375 211.609 131.147 211.159 126.625ZM251.1 107.875C252.8 111.675 254.147 115.909 254.591 120.375H229.912C230.356 115.909 231.703 111.675 233.403 107.875H251.1ZM236.694 101.625C238.713 98.3062 240.759 95.6188 242.25 93.8281C243.741 95.6188 245.787 98.3062 247.806 101.625H236.694ZM273.341 120.375H260.847C260.481 115.928 259.366 111.725 257.878 107.875H269.272C271.45 111.625 272.891 115.853 273.341 120.375ZM273.341 126.625C272.891 131.147 271.447 135.375 269.272 139.125H257.878C259.366 135.275 260.481 131.072 260.847 126.625H273.341ZM223.653 120.375H211.159C211.609 115.853 213.053 111.625 215.228 107.875H226.622C225.134 111.725 224.019 115.928 223.653 120.375ZM229.909 126.625H254.588C254.144 131.091 252.797 135.325 251.097 139.125H233.397C231.7 135.325 230.353 131.091 229.909 126.625ZM247.806 145.375C245.787 148.694 243.741 151.381 242.25 153.172C240.759 151.381 238.713 148.694 236.694 145.375H247.806ZM249.706 153.812C251.403 151.513 253.278 148.656 255.019 145.375H264.528C260.531 149.447 255.425 152.406 249.706 153.812ZM264.528 101.625H255.019C253.275 98.3438 251.4 95.4875 249.706 93.1875C255.425 94.5938 260.531 97.5531 264.528 101.625ZM234.794 93.1875C233.097 95.4875 231.222 98.3438 229.481 101.625H219.972C223.969 97.5531 229.075 94.5938 234.794 93.1875ZM219.972 145.375H229.481C231.225 148.656 233.1 151.513 234.794 153.812C229.075 152.406 223.969 149.447 219.972 145.375ZM161 139.125C161 144.294 156.794 148.5 151.625 148.5H101.625C96.4562 148.5 92.25 144.294 92.25 139.125V136H161V139.125ZM142.25 129.75H111V104.75H142.25V129.75ZM148.5 129.75V104.75C148.5 101.303 145.697 98.5 142.25 98.5H111C107.553 98.5 104.75 101.303 104.75 104.75V129.75H98.5V101.625C98.5 96.4562 102.706 92.25 107.875 92.25H145.375C150.544 92.25 154.75 96.4562 154.75 101.625V129.75H148.5ZM92.25 223.5H129.75V261H92.25V223.5ZM126.625 273.5H95.375C93.6531 273.5 92.25 272.1 92.25 270.375V267.25H129.75V270.375C129.75 272.1 128.347 273.5 126.625 273.5ZM129.75 214.125V217.25H92.25V214.125C92.25 212.4 93.6531 211 95.375 211H126.625C128.347 211 129.75 212.4 129.75 214.125ZM148.5 167.25H217.25C218.972 167.25 220.375 168.653 220.375 170.375V192.25H145.375V170.375C145.375 168.653 146.778 167.25 148.5 167.25V167.25ZM145.375 201.625V198.5H220.375V201.625C220.375 203.35 218.972 204.75 217.25 204.75H148.5C146.778 204.75 145.375 203.35 145.375 201.625V201.625ZM214.125 223.5H270.375C272.097 223.5 273.5 224.9 273.5 226.625V248.5H211V226.625C211 224.9 212.403 223.5 214.125 223.5ZM254.75 273.5H229.75V267.25H254.75V273.5ZM270.375 261H214.125C212.403 261 211 259.6 211 257.875V254.75H273.5V257.875C273.5 259.6 272.097 261 270.375 261Z" fill="#0091E9"></path></svg> 